<svg width="65" height="64" viewBox="0 0 65 64" fill="none" xmlns="http://www.w3.org/2000/svg">
<path fill-rule="evenodd" clip-rule="evenodd" d="M27.8262 20.3574C36.8953 35.8808 30.485 55.4281 17.2109 56C14.6345 56 9.17235 55.3871 7.72949 48.9531V35.8809H0L21.6426 14.0254L27.8262 20.3574ZM20.7148 35.9834C18.5521 35.9835 16.7988 37.6749 16.7988 39.7617C16.7989 41.8485 18.5521 43.5399 20.7148 43.54C22.8777 43.54 24.6318 41.8486 24.6318 39.7617C24.6318 37.6748 22.8777 35.9834 20.7148 35.9834Z" fill="#EC1321"/>
<path fill-rule="evenodd" clip-rule="evenodd" d="M50.6982 16.4951V13.2197H55.29V20.793L64.2607 29.3906H55.29C55.3257 34.5763 56.1543 45.1518 55.29 48.9385C54.4256 52.7249 50.6986 55.4882 47.4951 56H17.0596C20.5623 56 23.7163 53.6804 24.8555 52.5205C28.0591 48.9385 26.8838 43.0022 26.8838 29.3906H19.0889L41.4082 8L50.6982 16.4951ZM41.2773 29.8047C38.7163 29.8049 36.6406 31.8624 36.6406 34.4004C36.6406 36.9384 38.7162 38.9958 41.2773 38.9961C43.8387 38.9961 45.915 36.9385 45.915 34.4004C45.915 31.8623 43.8387 29.8047 41.2773 29.8047Z" fill="#F99F2F"/>
</svg>
